<?xml version="1.0" standalone="no"?>
<!DOCTYPE svg PUBLIC "-//W3C//DTD SVG 20010904//EN"
 "http://www.w3.org/TR/2001/REC-SVG-20010904/DTD/svg10.dtd">
<svg version="1.0" xmlns="http://www.w3.org/2000/svg"
 width="1000.000000pt" height="1000.000000pt" viewBox="0 0 1000.000000 1000.000000"
 preserveAspectRatio="xMidYMid meet">
<metadata>
Created by potrace 1.14, written by Peter Selinger 2001-2017
</metadata>
<g transform="translate(0.000000,1000.000000) scale(0.100000,-0.100000)"
fill="#000000" stroke="none">
<path d="M37 5007 c1 -1536 2 -2798 2 -2804 1 -10 1000 -13 4961 -13 2728 0
4960 3 4961 8 1 9 1 5573 0 5589 -1 9 -1186 11 -4963 11 l-4963 0 2 -2791z
m1274 2164 c3 0 5 -139 5 -308 l-1 -308 -385 0 -385 0 -1 305 c-1 168 0 307 1
310 3 4 747 5 766 1z m8130 0 c14 -1 16 -36 15 -310 l0 -308 -385 1 -386 1 -1
310 -1 310 371 -1 c204 -1 378 -2 387 -3z m-4205 -517 c121 -19 213 -41 314
-76 659 -229 1112 -853 1124 -1548 1 -71 4 -132 7 -135 3 -3 14 4 25 16 16 17
18 37 19 137 0 64 4 122 8 128 10 17 65 23 83 9 14 -9 15 -33 13 -152 -4 -141
-4 -141 -35 -179 -22 -28 -45 -43 -80 -53 -27 -8 -50 -15 -50 -15 -1 -1 -5
-23 -8 -51 -9 -72 -51 -231 -85 -323 -122 -329 -357 -624 -655 -820 -163 -107
-391 -201 -571 -236 -44 -9 -93 -19 -110 -22 -66 -13 -380 -12 -470 2 -387 61
-697 219 -965 493 -260 266 -435 637 -465 991 -4 41 -8 86 -10 99 -7 45 -48
156 -62 171 -14 13 -14 12 -3 -9 18 -34 15 -129 -4 -175 -53 -126 -214 -156
-318 -58 l-27 25 5 -28 c6 -33 -8 -45 -53 -45 -39 0 -44 7 -64 95 -9 39 -19
63 -22 55 -57 -155 -50 -145 -88 -148 -43 -4 -50 3 -82 93 -24 66 -25 68 -32
40 -21 -89 -28 -106 -50 -124 -14 -10 -33 -18 -43 -16 -9 2 -22 4 -29 4 -18 1
-53 42 -53 63 0 9 13 24 29 33 34 17 32 13 65 165 14 68 31 119 40 125 13 10
26 11 68 6 8 -1 68 -157 68 -177 0 -30 18 -12 34 34 10 26 21 55 27 64 5 10 9
25 9 33 0 27 37 54 66 49 40 -7 41 -8 55 -79 13 -69 23 -81 33 -40 10 39 63
92 112 111 56 21 136 14 178 -17 25 -19 31 -20 40 -7 21 29 55 40 87 29 28
-10 29 -9 30 22 0 18 2 39 4 47 1 8 6 32 9 53 13 82 83 303 115 364 5 10 24
47 41 83 237 474 714 815 1250 893 123 18 362 19 476 1z m-3920 -1033 c0 -270
-2 -310 -16 -313 -13 -3 -657 -2 -731 1 l-26 1 0 310 0 310 387 0 386 0 0
-309z m8141 -1 c0 -278 -2 -310 -16 -311 -9 0 -183 -1 -387 -2 l-370 -2 0 313
0 312 386 0 386 0 1 -310z m-2471 -474 c20 -22 50 -61 68 -85 l31 -43 5 80 c3
44 8 83 12 87 9 9 73 9 88 0 5 -3 8 -10 5 -15 -3 -5 -1 -11 5 -15 5 -3 10 -2
10 4 0 42 212 52 286 15 61 -32 97 -91 100 -165 4 -97 -32 -164 -106 -196 -46
-19 -195 -24 -220 -6 -16 12 -19 27 -19 121 0 157 2 147 -26 148 -29 2 -27 10
-26 -140 1 -68 -3 -114 -10 -122 -15 -19 -55 -18 -71 1 -28 34 -35 42 -86 108
-30 37 -55 67 -56 67 -1 0 -1 -28 -1 -62 1 -35 -3 -73 -9 -86 -13 -30 -56 -53
-87 -45 -59 14 -79 69 -34 93 25 13 25 14 25 152 0 134 1 139 22 147 33 12 54
3 94 -43z m-5681 -465 c8 -1 11 -102 11 -311 l0 -310 -387 0 -386 0 0 308 c0
169 4 309 8 312 6 4 717 5 754 1z m8131 0 c20 -1 21 -4 20 -311 l0 -310 -386
0 -386 0 2 303 c0 166 2 307 3 312 1 8 618 13 747 6z m-8121 -1556 l0 -310
-385 0 -385 0 -1 311 -1 310 386 0 386 -1 0 -310z m8139 296 c2 -9 3 -149 3
-311 l-2 -295 -385 0 -385 0 -1 311 0 311 383 -1 c337 0 383 -2 387 -15z"/>
<path d="M4383 5970 c-12 -5 -26 -18 -32 -29 -7 -13 -11 -145 -11 -383 l0
-364 79 -1 c94 -1 133 -19 160 -71 l20 -37 -3 37 c-5 49 13 71 54 70 18 0 37
-5 41 -9 5 -5 9 -70 10 -145 l0 -136 82 0 c83 -1 126 13 127 41 1 6 23 64 49
126 49 117 68 138 103 119 19 -9 31 -35 94 -188 21 -52 46 -111 55 -130 24
-48 11 -70 -42 -70 -38 0 -41 2 -61 48 -11 26 -25 50 -30 53 -7 5 -40 5 -69 0
-3 -1 -14 -20 -25 -42 -22 -49 -71 -77 -104 -59 -11 6 -25 8 -31 4 -6 -3 -61
-6 -122 -5 -86 0 -114 4 -122 15 -6 8 -11 57 -10 110 0 52 -3 92 -7 90 -4 -3
-8 -11 -8 -18 0 -27 -58 -68 -104 -73 l-45 -5 -3 -57 -3 -56 -42 -3 -43 -3 0
-360 c0 -296 3 -365 15 -388 15 -30 33 -41 69 -41 12 0 172 87 356 193 184
106 497 287 696 401 l360 208 -1 126 c-1 119 -2 126 -23 133 -16 6 -24 4 -32
-11 -8 -15 -6 -21 11 -30 17 -10 20 -20 18 -63 -2 -57 -11 -80 -43 -115 -45
-51 -113 -69 -181 -50 -165 48 -195 283 -47 366 71 39 159 36 214 -8 25 -19
25 -19 47 4 l21 23 -47 27 c-27 14 -55 31 -63 36 -52 32 -151 90 -156 90 -3 0
-30 16 -60 35 -30 19 -56 35 -58 35 -3 0 -37 19 -78 43 -40 24 -93 55 -118 69
-25 14 -107 62 -184 107 -76 44 -139 81 -141 81 -2 0 -63 36 -138 79 -279 164
-329 191 -352 190 -11 0 -30 -4 -42 -9z m883 -783 c1 -1 15 -24 32 -50 l31
-49 26 51 c15 30 32 51 43 52 9 1 24 2 32 3 24 2 50 -13 50 -30 0 -9 -17 -46
-37 -82 -20 -37 -42 -78 -50 -92 -7 -14 -13 -55 -13 -92 0 -36 -3 -73 -6 -82
-7 -19 -79 -22 -90 -4 -5 7 -9 43 -9 81 -2 56 -8 80 -34 131 -22 41 -42 66
-61 74 -34 16 -44 36 -28 62 17 27 48 40 82 35 16 -3 30 -6 32 -8z"/>
<path d="M5193 5154 c-15 -12 -16 -15 -3 -23 8 -5 17 -8 21 -5 7 4 26 -24 72
-108 20 -35 26 -62 26 -100 -1 -83 0 -88 19 -88 16 0 18 10 19 75 1 67 5 82
39 143 20 37 44 77 52 90 13 21 13 22 -11 22 -21 0 -31 -11 -57 -62 -18 -35
-35 -66 -39 -70 -4 -4 -15 9 -26 30 -53 102 -77 123 -112 96z"/>
<path d="M3025 5158 c-150 -53 -146 -287 7 -328 112 -31 205 44 206 166 0 71
-30 122 -88 152 -48 24 -78 26 -125 10z m114 -44 c86 -51 78 -207 -12 -245
-62 -26 -144 9 -165 71 -12 33 -8 100 8 130 28 53 115 76 169 44z"/>
<path d="M3020 5073 c-25 -23 -30 -36 -32 -76 -1 -39 3 -53 24 -73 46 -46 126
-37 143 17 23 70 12 115 -34 142 -41 24 -66 21 -101 -10z"/>
<path d="M3265 5156 c-14 -10 -14 -14 -3 -23 7 -6 17 -11 22 -10 8 2 26 -43
95 -238 27 -74 49 -69 79 20 13 39 39 112 57 163 33 91 33 93 12 90 -22 -3
-26 -11 -84 -181 -30 -90 -24 -96 -83 75 -36 103 -60 130 -95 104z"/>
<path d="M5601 5159 c-92 -20 -147 -123 -116 -219 28 -89 128 -136 213 -101
32 14 69 64 76 106 10 53 2 60 -61 58 -91 -2 -93 -2 -90 -15 3 -20 14 -24 61
-23 48 2 58 -8 46 -40 -20 -53 -88 -76 -145 -49 -42 20 -74 80 -69 130 4 44
36 97 67 111 32 15 105 10 123 -9 14 -13 12 -17 -13 -33 -25 -17 -26 -19 -8
-25 31 -11 55 0 62 28 7 30 -5 53 -38 69 -34 17 -69 21 -108 12z"/>
<path d="M6234 5151 c-114 -52 -124 -236 -17 -302 78 -48 191 -20 227 56 48
101 12 211 -83 251 -45 19 -78 17 -127 -5z m137 -44 c96 -64 62 -229 -50 -244
-81 -11 -141 45 -141 132 0 110 104 171 191 112z"/>
<path d="M6504 5156 c-21 -16 -22 -14 31 -31 12 -3 15 -24 15 -99 0 -122 12
-155 67 -184 27 -15 85 -15 116 -1 48 22 62 63 63 197 1 113 0 122 -17 122
-14 0 -19 -8 -20 -27 0 -16 -1 -72 -2 -125 -2 -84 -5 -100 -23 -118 -34 -35
-77 -36 -114 -3 l-32 29 0 107 c1 94 -1 110 -18 127 -24 24 -39 25 -66 6z"/>
<path d="M2545 5140 c-3 -11 -8 -31 -11 -44 -2 -13 -13 -67 -24 -121 -11 -53
-20 -98 -20 -100 0 -1 -14 -5 -31 -9 -27 -5 -30 -8 -19 -21 19 -22 57 -18 74
8 8 12 22 63 32 112 22 118 28 128 45 79 7 -21 14 -43 15 -49 4 -17 53 -145
59 -155 11 -18 35 -11 44 13 4 12 25 72 46 132 l39 110 13 -60 c6 -33 15 -76
18 -95 16 -92 21 -105 43 -108 20 -3 21 -1 12 24 -6 15 -8 29 -6 31 3 3 1 15
-4 27 -4 13 -11 38 -14 57 -3 19 -12 66 -21 104 -8 39 -15 73 -15 78 0 4 -9 7
-19 7 -14 0 -24 -13 -37 -47 -9 -27 -27 -73 -39 -103 -12 -30 -25 -67 -29 -82
-6 -28 -22 -38 -23 -15 -1 10 -29 92 -50 147 -4 8 -7 17 -8 20 -1 3 -7 18 -13
33 -7 16 -12 33 -12 38 0 18 -39 9 -45 -11z"/>
<path d="M3610 4995 c0 -158 1 -165 20 -165 19 0 20 7 20 165 0 158 -1 165
-20 165 -19 0 -20 -7 -20 -165z"/>
<path d="M3727 5142 c-23 -25 -21 -41 3 -39 11 1 20 5 20 9 0 4 5 8 10 8 6 0
10 -55 10 -144 l0 -145 104 0 c82 -1 105 2 110 14 7 20 -2 23 -54 23 -25 0
-62 1 -82 1 l-38 1 0 60 0 60 60 0 c45 0 60 4 60 14 0 18 -16 23 -73 21 l-48
-2 3 50 3 51 85 1 c69 0 85 3 85 15 0 12 -21 15 -121 18 -107 2 -122 0 -137
-16z"/>
<path d="M4319 5141 c-19 -16 -22 -22 -11 -32 9 -10 15 -10 24 -1 24 24 29 10
28 -75 -3 -191 -2 -203 19 -203 17 0 19 10 19 139 0 77 3 144 6 149 7 11 86 6
99 -7 5 -5 11 -26 14 -47 6 -47 -16 -73 -68 -77 -19 -1 -33 -6 -31 -10 1 -4 2
-11 2 -17 0 -17 61 -11 96 10 54 34 59 129 7 170 -37 29 -169 29 -204 1z"/>
<path d="M4630 4995 l0 -165 100 0 c91 0 100 2 100 19 0 17 -9 19 -77 20 -42
1 -79 3 -81 6 -3 2 -4 68 -3 145 1 134 1 140 -19 140 -19 0 -20 -6 -20 -165z"/>
<path d="M4972 5011 c-59 -140 -64 -148 -87 -143 -28 5 -33 -9 -11 -28 29 -23
59 -7 86 45 l26 50 60 2 60 1 21 -51 c15 -38 27 -53 43 -55 16 -3 21 0 17 10
-102 247 -135 318 -145 318 -4 0 -36 -67 -70 -149z m91 37 c8 -24 18 -50 21
-58 5 -12 -3 -15 -39 -16 -25 -1 -45 2 -45 6 0 9 42 110 45 110 2 0 10 -19 18
-42z"/>
<path d="M5826 5144 c-17 -16 -22 -44 -8 -44 4 0 18 7 30 16 l22 15 0 -150 c0
-143 1 -151 19 -151 19 0 20 7 18 145 -2 159 -7 148 62 147 40 0 61 -22 61
-63 0 -31 -22 -58 -48 -60 -9 -1 -23 -2 -31 -3 -21 -2 -22 -34 -1 -41 9 -3 38
-32 64 -65 34 -44 52 -60 70 -60 14 0 27 4 30 8 7 12 -10 35 -22 28 -5 -3 -28
18 -50 48 l-41 53 25 12 c51 23 59 107 15 152 -28 27 -34 29 -115 29 -64 0
-88 -4 -100 -16z"/>
<path d="M5603 5089 c-49 -18 -70 -111 -35 -156 23 -30 61 -42 94 -31 40 14
34 28 -10 28 -47 0 -62 14 -62 57 0 31 29 61 48 49 4 -2 7 11 8 28 0 34 -8 38
-43 25z"/>
<path d="M4430 5056 c0 -29 4 -36 19 -36 45 0 53 63 8 68 -25 3 -27 0 -27 -32z"/>
<path d="M5940 5060 c0 -28 3 -31 28 -28 21 2 27 8 27 28 0 20 -6 26 -28 28
-24 3 -27 0 -27 -28z"/>
<path d="M5940 4901 c0 -11 4 -21 9 -21 18 0 21 18 6 30 -13 10 -15 9 -15 -9z"/>
<path d="M7259 5158 c-25 -10 -36 -38 -18 -49 9 -6 18 -3 27 8 6 9 13 15 13
12 1 -2 2 -69 3 -149 l2 -145 78 -3 c130 -5 192 40 200 145 6 75 -27 138 -87
170 -31 16 -184 23 -218 11z m214 -51 c35 -23 50 -52 53 -107 4 -80 -43 -129
-129 -134 -75 -5 -72 -9 -71 132 1 70 2 128 3 128 0 1 27 1 59 0 37 -1 68 -8
85 -19z"/>
<path d="M7359 5086 c-1 -13 -1 -131 0 -163 1 -20 6 -23 41 -23 47 0 89 34 91
72 4 80 -22 116 -89 121 -25 2 -42 -1 -43 -7z"/>
<path d="M6907 5153 c-3 -5 -5 -68 -4 -140 1 -126 -3 -146 -24 -149 -5 -1 -13
-2 -19 -3 -22 -3 5 -31 30 -31 44 0 51 18 51 139 1 61 2 111 4 111 2 0 27 -30
57 -67 112 -143 150 -185 157 -178 3 4 6 78 6 166 0 153 -1 159 -20 159 -19 0
-20 -6 -19 -120 0 -66 0 -120 -2 -120 -3 0 -66 79 -104 131 -39 51 -91 109
-101 109 -4 0 -10 -3 -12 -7z"/>
</g>
</svg>
